<?xml version="1.0" encoding="UTF-8"?>
<!DOCTYPE svg PUBLIC "-//W3C//DTD SVG 1.1//EN" "http://www.w3.org/Graphics/SVG/1.1/DTD/svg11.dtd">
<svg xmlns="http://www.w3.org/2000/svg" version="1.1" width="400px" height="400px" style="shape-rendering:geometricPrecision; text-rendering:geometricPrecision; image-rendering:optimizeQuality; fill-rule:evenodd; clip-rule:evenodd" xmlns:xlink="http://www.w3.org/1999/xlink">
<g><path style="opacity:0.994" fill="#121212" d="M 179.5,-0.5 C 192.833,-0.5 206.167,-0.5 219.5,-0.5C 304.538,11.9461 361.705,58.6127 391,139.5C 394.818,152.765 397.651,166.099 399.5,179.5C 399.5,192.833 399.5,206.167 399.5,219.5C 387.054,304.538 340.387,361.705 259.5,391C 246.235,394.818 232.901,397.651 219.5,399.5C 206.167,399.5 192.833,399.5 179.5,399.5C 94.4616,387.054 37.295,340.387 8,259.5C 4.18196,246.235 1.34862,232.901 -0.5,219.5C -0.5,206.167 -0.5,192.833 -0.5,179.5C 11.9461,94.4616 58.6127,37.295 139.5,8C 152.765,4.18196 166.099,1.34862 179.5,-0.5 Z"/></g>
<g><path style="opacity:1" fill="#fdfdfd" d="M 182.5,66.5 C 238.894,62.6164 282.728,83.9497 314,130.5C 333.719,164.934 338.053,201.267 327,239.5C 311.833,282.667 282.667,311.833 239.5,327C 212.825,334.315 186.158,334.315 159.5,327C 153.288,324.985 147.288,322.485 141.5,319.5C 151.986,308.514 162.652,297.681 173.5,287C 211.74,294.92 243.906,284.42 270,255.5C 293.982,221.537 295.648,186.537 275,150.5C 253.908,120.706 225.074,107.206 188.5,110C 155.553,115.609 131.72,133.442 117,163.5C 110.918,177.575 108.585,192.241 110,207.5C 110.733,213.572 111.4,219.572 112,225.5C 101.333,236.167 90.6667,246.833 80,257.5C 65.8574,228.463 62.5241,198.129 70,166.5C 87.3298,110.33 124.83,76.9968 182.5,66.5 Z"/></g>
<g><path style="opacity:1" fill="#fcfcfc" d="M 193.5,164.5 C 220.039,164.209 233.539,177.209 234,203.5C 228.299,226.942 213.466,236.776 189.5,233C 169.772,225.051 161.939,210.551 166,189.5C 170.956,176.453 180.123,168.12 193.5,164.5 Z"/></g>
<g><path style="opacity:1" fill="#fbfbfb" d="M 119.5,250.5 C 139.006,250.505 148.506,260.172 148,279.5C 140.952,297.772 128.452,302.939 110.5,295C 99.7305,285.607 97.5638,274.44 104,261.5C 108.135,256.199 113.302,252.533 119.5,250.5 Z"/></g>
</svg>
