<svg width="24" height="24" viewBox="0 0 24 24" fill="none" xmlns="http://www.w3.org/2000/svg">
<path d="M12 1.02856L21.5015 6.51428V17.4857L16.4936 20.7428L12.1714 23.3143H10.4572L1.98416 18.5143L2.49846 6.51428L12 1.02856Z" fill="#2D374B"/>
<path d="M21.2778 15.4053L21.2802 16.9172C21.2751 17.0204 21.2483 17.1215 21.2015 17.2137C21.1547 17.3059 21.0891 17.3872 21.0087 17.4523L19.3497 18.4132L14.7637 10.9962L16.5272 8.0061L21.2778 15.4053Z" fill="#28A0F0"/>
<path d="M15.4367 20.6813L12.1262 15.4857L14.1473 12.0567L18.4947 18.9091L15.4367 20.6813Z" fill="#28A0F0"/>
<path d="M1.37311 18.1646L3.71384 19.5133L11.506 7.01711L10.1836 6.98291C9.05686 6.967 7.84305 7.25981 7.286 8.16935L2.86108 15.0277L1.37311 17.3149V18.1646Z" fill="white"/>
<path d="M12.5181 7.02961L16.0033 7.01695L7.38866 21.6292L4.63249 20.0422L12.5181 7.02961Z" fill="white"/>
<path d="M22.7481 6.99895C22.7322 6.63926 22.629 6.28885 22.4474 5.97793C22.2659 5.66701 22.0114 5.40492 21.706 5.21424L13.0412 0.231412C12.7319 0.079407 12.3919 0.000366211 12.0472 0.000366211C11.7025 0.000366211 11.3625 0.079407 11.0532 0.231412C10.9808 0.267841 2.6268 5.11299 2.6268 5.11299C2.51073 5.16872 2.39971 5.23441 2.295 5.30933C2.02374 5.50223 1.79971 5.75409 1.63975 6.04599C1.47979 6.33788 1.38805 6.66223 1.37143 6.99467V17.3144L2.8594 15.0272L2.84794 7.06497C2.8549 6.95581 2.88599 6.84955 2.93896 6.75384C2.99192 6.65814 3.06546 6.57538 3.15426 6.51151C3.1936 6.48329 11.6903 1.56511 11.7173 1.5516C11.819 1.50209 11.9306 1.4761 12.0437 1.47557C12.1568 1.47504 12.2686 1.49997 12.3708 1.54852L20.9236 6.46824C21.0232 6.53149 21.1061 6.61779 21.1653 6.71983C21.2246 6.82187 21.2584 6.93667 21.2639 7.05453V16.9182C21.2618 17.0205 21.238 17.1212 21.1939 17.2134C21.1498 17.3057 21.0865 17.3876 21.0082 17.4534L19.3492 18.4143L18.4941 18.9102L15.436 20.6825L12.3347 22.4798C12.1632 22.5403 11.9757 22.5366 11.8067 22.4694L8.1376 20.3591L7.38814 21.6302L10.6856 23.5286C10.7947 23.5905 10.8919 23.6456 10.9716 23.6904C11.0951 23.7588 11.1792 23.8059 11.2088 23.8202C11.4847 23.9411 11.783 24.0025 12.0841 24.0003C12.3604 24.0007 12.6342 23.9492 12.8914 23.8484L21.8991 18.632C22.1532 18.4343 22.3609 18.1833 22.5076 17.8967C22.6542 17.61 22.7362 17.2947 22.7478 16.973L22.7481 6.99895Z" fill="#96BEDC"/>
</svg>
