<svg width="24" height="24" viewBox="0 0 24 24" fill="none" xmlns="http://www.w3.org/2000/svg">
<path fill-rule="evenodd" clip-rule="evenodd" d="M19.8436 1.20001C19.8436 0.537261 19.2923 0 18.6121 0H15.9175C15.2375 0 14.6861 0.537261 14.6861 1.20001V3.80003C14.6861 4.46277 15.2375 5.00003 15.9175 5.00003H17.611C18.2912 5.00003 18.8425 5.5373 18.8425 6.20004V22.7999C18.8425 23.4627 19.3939 23.9999 20.0739 23.9999H22.7686C23.4487 23.9999 24 23.4627 24 22.7999V6.19977C24 5.53702 23.4487 4.99976 22.7686 4.99976H21.0751C20.395 4.99976 19.8436 4.4625 19.8436 3.79975V1.20001ZM9.49367 1.20009C9.49367 0.537337 8.94233 7.54713e-05 8.26225 7.54713e-05H5.5676C4.88751 7.54713e-05 4.33617 0.537337 4.33617 1.20009V3.79991C4.33617 4.46265 3.78484 4.99991 3.10474 4.99991H1.23143C0.551332 4.99991 0 5.53718 0 6.19992V22.8C0 23.4627 0.551332 24 1.23143 24H3.92608C4.60618 24 5.15751 23.4627 5.15751 22.8V6.20011C5.15751 5.53737 5.70885 5.00011 6.38894 5.00011H8.26225C8.94233 5.00011 9.49367 4.46284 9.49367 3.8001V1.20009ZM14.6149 10.7713C14.6149 10.1086 14.0635 9.57136 13.3834 9.57136H10.6888C10.0086 9.57136 9.45729 10.1086 9.45729 10.7713V18.0857C9.45729 18.7485 10.0086 19.2857 10.6888 19.2857H13.3834C14.0635 19.2857 14.6149 18.7485 14.6149 18.0857V10.7713Z" fill="#2B6CB0"/>
</svg>
