<svg width="24" height="24" viewBox="0 0 24 24" fill="none" xmlns="http://www.w3.org/2000/svg">
<circle cx="12" cy="12" r="11" fill="#051024"/>
<path d="M11.967 9.33618L16.9904 11.5849L11.967 14.6668L6.93359 11.582L11.967 9.33618Z" fill="#051024"/>
<path fill-rule="evenodd" clip-rule="evenodd" d="M11.8149 8.99506C11.9119 8.95178 12.0227 8.95184 12.1197 8.99525L17.143 11.244C17.2695 11.3006 17.3542 11.4225 17.3631 11.5607C17.3721 11.699 17.3038 11.8308 17.1857 11.9033L12.1624 14.9852C12.0426 15.0587 11.8917 15.0588 11.7719 14.9853L6.73841 11.9005C6.6202 11.8281 6.55184 11.6961 6.56085 11.5577C6.56987 11.4194 6.65478 11.2974 6.7814 11.2409L11.8149 8.99506ZM7.73352 11.6341L11.967 14.2287L16.1917 11.6366L11.9668 9.74534L7.73352 11.6341Z" fill="#0564FF"/>
<path fill-rule="evenodd" clip-rule="evenodd" d="M12.0722 3.39261C12.2312 3.43932 12.3404 3.58525 12.3404 3.75101V14.6565C12.3404 14.7916 12.2675 14.9162 12.1496 14.9823C12.0318 15.0484 11.8874 15.0457 11.7721 14.9752L6.73882 11.8993C6.65303 11.8469 6.59199 11.7621 6.56951 11.6641C6.54704 11.5661 6.56502 11.4632 6.61939 11.3786L11.6527 3.54902C11.7423 3.40958 11.9131 3.3459 12.0722 3.39261Z" fill="#5588E4" fill-opacity="0.8"/>
<path opacity="0.8" fill-rule="evenodd" clip-rule="evenodd" d="M11.8615 3.39261C12.0206 3.3459 12.1914 3.40958 12.281 3.54902L17.3143 11.3786C17.3687 11.4632 17.3867 11.5661 17.3642 11.6641C17.3417 11.7621 17.2807 11.8469 17.1949 11.8993L12.1616 14.9752C12.0463 15.0457 11.9019 15.0484 11.7841 14.9823C11.6662 14.9162 11.5933 14.7916 11.5933 14.6565V3.75101C11.5933 3.58525 11.7025 3.43932 11.8615 3.39261Z" fill="#0564FF"/>
<path fill-rule="evenodd" clip-rule="evenodd" d="M6.46396 13.2395C6.33894 13.3737 6.32979 13.5787 6.44238 13.7235L11.6719 20.4472C11.7699 20.5732 11.9371 20.623 12.088 20.5712C12.239 20.5194 12.3403 20.3775 12.3403 20.2179V17C12.3403 16.8755 12.2783 16.7591 12.1748 16.6897L6.94524 13.1839C6.79292 13.0818 6.58899 13.1053 6.46396 13.2395Z" fill="#5588E4" fill-opacity="0.8"/>
<path opacity="0.8" d="M17.2298 13.4941L12.0002 20.2179V17L17.2298 13.4941Z" fill="#0564FF" stroke="#0564FF" stroke-width="0.747083" stroke-linejoin="round"/>
</svg>
