<svg width="124" height="34" viewBox="0 0 124 34" fill="none" xmlns="http://www.w3.org/2000/svg">
<path d="M32.2062 12.6859H23.5776V21.3144H32.2062V12.6859Z" fill="#0564FF"/>
<path d="M20.4178 0.897489L16.1035 8.37006L23.5761 12.6843L27.8904 5.21178L20.4178 0.897489Z" fill="#0564FF"/>
<path d="M8.62777 21.3086L4.31348 28.7812L11.786 33.0955L16.1003 25.6229L8.62777 21.3086Z" fill="#0564FF"/>
<path d="M8.62858 12.6859H0V21.3144H8.62858V12.6859Z" fill="#0564FF"/>
<path d="M23.578 21.3157L16.1055 25.6299L20.4198 33.1025L27.8923 28.7882L23.578 21.3157Z" fill="#0564FF"/>
<path d="M11.788 0.901165L4.31543 5.21545L8.62972 12.688L16.1023 8.37373L11.788 0.901165Z" fill="#0564FF"/>
<path d="M123.95 7.72474H120.638V3.90552H123.95V7.72474ZM123.872 30.8739H120.755V10.7645H123.872V30.8739Z" fill="#F7F7F7"/>
<path d="M110.153 10.2968C112.374 10.2968 114.128 10.9204 115.375 12.1285C116.622 13.3756 117.246 15.0903 117.246 17.2727V30.8739H114.128V17.5845C114.128 14.6227 112.569 13.1028 109.529 13.1028C108.048 13.1028 106.762 13.6484 105.671 14.7396C104.541 15.8308 103.995 17.4286 103.995 19.4941V30.8739H100.877V10.7645H103.839V13.7653C105.359 11.466 107.464 10.2968 110.153 10.2968Z" fill="#F7F7F7"/>
<path d="M90.478 10.2968C92.6605 10.2968 94.3362 10.9593 95.5444 12.2064C96.7525 13.4535 97.376 15.1293 97.376 17.2338V30.8739H94.2583V17.5455C94.2583 14.5837 92.8553 13.1028 90.0493 13.1028C88.5684 13.1028 87.3213 13.7263 86.347 14.8955C85.3727 16.0646 84.9051 17.7404 84.9051 19.8838V30.8739H81.7873V17.5455C81.7873 14.5837 80.3844 13.1028 77.5784 13.1028C76.0975 13.1028 74.8894 13.7263 73.9151 14.8955C72.9018 16.0646 72.4341 17.7404 72.4341 19.8838V30.8739H69.3164V10.7645H72.2783V13.7263C73.6033 11.466 75.5129 10.2968 78.085 10.2968C81.0859 10.2968 83.1514 11.5829 84.2815 14.0771C85.6845 11.5829 87.75 10.2968 90.478 10.2968Z" fill="#F7F7F7"/>
<path d="M63.1609 27.4834C60.7057 30.1724 57.471 31.4974 53.4959 31.4974C49.4818 31.4974 46.2861 30.1724 43.8699 27.4834C41.4147 24.8723 40.2065 21.3648 40.2065 17C40.2065 12.6741 41.4147 9.16666 43.8699 6.47761C46.2861 3.82754 49.4818 2.5025 53.4959 2.5025C57.471 2.5025 60.7057 3.82754 63.1609 6.47761C65.5771 9.20563 66.7852 12.7131 66.7852 17C66.7852 21.3648 65.5771 24.8333 63.1609 27.4834ZM46.3251 25.3789C48.1178 27.4834 50.4951 28.4966 53.4959 28.4966C56.4577 28.4966 58.874 27.4834 60.6667 25.3789C62.4594 23.3524 63.3557 20.5464 63.3557 17C63.3557 13.4925 62.4594 10.6866 60.6667 8.62106C58.874 6.55556 56.4577 5.50332 53.4959 5.50332C50.4951 5.50332 48.1178 6.55556 46.3251 8.62106C44.5324 10.6866 43.6361 13.4925 43.6361 17C43.6361 20.5464 44.5324 23.3524 46.3251 25.3789Z" fill="#F7F7F7"/>
</svg>
