<svg width="24" height="24" viewBox="0 0 24 24" fill="none" xmlns="http://www.w3.org/2000/svg">
<circle cx="12" cy="12" r="12" fill="#FD0026"/>
<path d="M6.92596 16.3714C5.95311 16.3714 5.15603 16.1447 4.53471 15.6914C3.92158 15.23 3.61501 14.5743 3.61501 13.7242C3.61501 13.5461 3.63544 13.3276 3.67632 13.0685C3.7826 12.4857 3.93384 11.7854 4.13004 10.9678C4.68596 8.74164 6.1207 7.62854 8.43429 7.62854C9.06377 7.62854 9.62786 7.73378 10.1266 7.94425C10.6252 8.14664 11.0176 8.45425 11.3038 8.86711C11.5899 9.27187 11.733 9.75759 11.733 10.3243C11.733 10.4943 11.7126 10.7088 11.6717 10.9678C11.549 11.6883 11.4019 12.3885 11.2302 13.0685C10.9441 14.1776 10.4495 15.0073 9.74642 15.5578C9.04331 16.1002 8.1032 16.3714 6.92596 16.3714ZM7.09764 14.6228C7.55545 14.6228 7.94377 14.4892 8.26262 14.2221C8.5896 13.955 8.8226 13.5461 8.96157 12.9957C9.14963 12.2347 9.29266 11.5709 9.3908 11.0043C9.4235 10.8343 9.43985 10.6602 9.43985 10.4821C9.43985 9.74544 9.05149 9.37711 8.27486 9.37711C7.81705 9.37711 7.42464 9.51068 7.09764 9.77783C6.77881 10.045 6.5499 10.4538 6.41092 11.0043C6.26377 11.5466 6.11662 12.2105 5.96946 12.9957C5.93676 13.1576 5.92041 13.3276 5.92041 13.5057C5.92041 14.2504 6.31282 14.6228 7.09764 14.6228Z" fill="white"/>
<path d="M12.2916 16.25C12.2016 16.25 12.1322 16.2217 12.0831 16.165C12.0422 16.1002 12.03 16.0274 12.0463 15.9464L13.7386 8.05357C13.7549 7.96452 13.7999 7.89167 13.8735 7.835C13.947 7.77833 14.0247 7.75 14.1065 7.75H17.3683C18.2758 7.75 19.0034 7.93619 19.5511 8.30857C20.107 8.68095 20.385 9.21929 20.385 9.92357C20.385 10.126 20.3605 10.3364 20.3115 10.555C20.107 11.4859 19.6942 12.174 19.0729 12.6193C18.4598 13.0645 17.6177 13.2871 16.5467 13.2871H14.8913L14.3272 15.9464C14.3108 16.0355 14.2659 16.1083 14.1923 16.165C14.1187 16.2217 14.0411 16.25 13.9593 16.25H12.2916ZM16.6326 11.6114C16.976 11.6114 17.2744 11.5183 17.5278 11.3321C17.7894 11.146 17.9611 10.8788 18.0428 10.5307C18.0673 10.3931 18.0796 10.2717 18.0796 10.1664C18.0796 9.93167 18.0101 9.75357 17.8711 9.63214C17.7322 9.50262 17.4951 9.43786 17.1599 9.43786H15.6884L15.2224 11.6114H16.6326Z" fill="white"/>
</svg>
