<svg xmlns="http://www.w3.org/2000/svg" width="500" height="500" viewBox="0 0 500 500" version="1.1"><path d="M 242.105 171.583 C 230.686 174.653, 218.438 183.822, 212.932 193.421 C 207.428 203.018, 209.666 212.724, 218.353 216.929 C 226.294 220.773, 232.689 218.965, 238.668 211.183 C 243.678 204.663, 249.021 201.607, 255.495 201.560 C 268.329 201.468, 277.418 213.308, 274.066 225.755 C 273.248 228.793, 270.342 232.694, 262.944 240.684 C 252.221 252.266, 245.386 261.755, 242.548 269 C 241.481 271.724, 240.575 277.516, 240.253 283.674 C 239.748 293.318, 239.856 294.079, 242.326 298.294 C 248.414 308.682, 263.199 308.672, 269.271 298.276 C 270.467 296.228, 271.350 292.232, 271.700 287.279 C 272.048 282.362, 272.923 278.380, 274.079 276.457 C 275.085 274.783, 280.647 268.258, 286.440 261.957 C 302.048 244.979, 306.155 236.071, 306.097 219.320 C 306.020 197.065, 290.470 177.228, 268.500 171.359 C 262.021 169.629, 248.959 169.739, 242.105 171.583 M 249.450 314.407 C 239.707 318.651, 236.981 332.181, 244.379 339.579 C 251.409 346.609, 260.722 346.371, 267.390 338.990 C 270.636 335.397, 271 334.426, 271 329.365 C 271 322.245, 268.449 317.880, 262.647 315.071 C 257.750 312.701, 253.821 312.503, 249.450 314.407" stroke="none" fill="#f9fafc" fill-rule="evenodd"/><path d="M 230.834 126.567 C 175.445 136.589, 132.094 180.445, 122.387 236.276 C 120.172 249.017, 120.945 276.073, 123.853 287.596 C 127.083 300.395, 129.836 307.720, 135.692 319.098 C 154.768 356.160, 190.394 382.304, 231.622 389.493 C 242.899 391.460, 264.968 391.432, 276.500 389.436 C 317.579 382.328, 354.069 355.463, 372.656 318.644 C 382.444 299.254, 386.994 280.011, 386.994 258 C 386.994 235.989, 382.444 216.746, 372.656 197.356 C 354.069 160.537, 317.579 133.672, 276.500 126.564 C 265.368 124.637, 241.488 124.639, 230.834 126.567 M 242.105 171.583 C 230.686 174.653, 218.438 183.822, 212.932 193.421 C 207.428 203.018, 209.666 212.724, 218.353 216.929 C 226.294 220.773, 232.689 218.965, 238.668 211.183 C 243.678 204.663, 249.021 201.607, 255.495 201.560 C 268.329 201.468, 277.418 213.308, 274.066 225.755 C 273.248 228.793, 270.342 232.694, 262.944 240.684 C 252.221 252.266, 245.386 261.755, 242.548 269 C 241.481 271.724, 240.575 277.516, 240.253 283.674 C 239.748 293.318, 239.856 294.079, 242.326 298.294 C 248.414 308.682, 263.199 308.672, 269.271 298.276 C 270.467 296.228, 271.350 292.232, 271.700 287.279 C 272.048 282.362, 272.923 278.380, 274.079 276.457 C 275.085 274.783, 280.647 268.258, 286.440 261.957 C 302.048 244.979, 306.155 236.071, 306.097 219.320 C 306.020 197.065, 290.470 177.228, 268.500 171.359 C 262.021 169.629, 248.959 169.739, 242.105 171.583 M 249.450 314.407 C 239.707 318.651, 236.981 332.181, 244.379 339.579 C 251.409 346.609, 260.722 346.371, 267.390 338.990 C 270.636 335.397, 271 334.426, 271 329.365 C 271 322.245, 268.449 317.880, 262.647 315.071 C 257.750 312.701, 253.821 312.503, 249.450 314.407" stroke="none" fill="#2679fc" fill-rule="evenodd"/></svg>
