<svg width="1491" height="400" viewBox="0 0 1491 400" fill="none" xmlns="http://www.w3.org/2000/svg">
<rect width="399.77" height="399.77" transform="translate(0.635742 0.114807)" fill="#176CFF"/>
<path d="M75.9863 166.808H142.854V233.676H75.9863V166.808Z" fill="white"/>
<path d="M325.54 166.808H258.672L258.673 233.676H325.54V166.808Z" fill="white"/>
<path d="M109.419 108.899L167.329 75.4651L200.762 133.374L142.854 166.808L109.419 108.899Z" fill="white"/>
<path d="M292.106 108.899L234.197 75.4649L200.762 133.374L258.672 166.808L292.106 108.899Z" fill="white"/>
<path d="M142.854 233.676L200.763 267.11L167.329 325.019L109.42 291.585L142.854 233.676Z" fill="white"/>
<path d="M258.673 233.676L200.763 267.11L234.197 325.019L292.106 291.585L258.673 233.676Z" fill="white"/>
<path d="M641.043 364.654C618.585 364.654 598.022 360.717 579.356 352.842C560.689 344.675 544.501 333.3 530.793 318.717C517.085 304.133 506.293 286.925 498.418 267.092C490.835 247.258 487.043 225.383 487.043 201.466C487.043 169.966 493.605 142.112 506.731 117.904C519.856 93.6952 537.939 74.8827 560.981 61.466C584.314 47.7576 610.856 40.9034 640.606 40.9034C670.939 40.9034 697.627 47.7576 720.669 61.466C743.71 74.8827 761.794 93.6952 774.919 117.904C788.335 142.112 795.044 170.112 795.044 201.904C795.044 225.529 791.106 247.404 783.231 267.529C775.648 287.362 765.002 304.571 751.294 319.154C737.585 333.446 721.252 344.675 702.293 352.842C683.627 360.717 663.21 364.654 641.043 364.654ZM640.606 325.279C661.606 325.279 680.127 320.029 696.168 309.529C712.21 298.737 724.752 284.008 733.794 265.342C743.127 246.675 747.794 225.237 747.794 201.029C747.794 177.112 743.273 156.112 734.231 138.029C725.189 119.654 712.648 105.508 696.606 95.5911C680.564 85.3827 661.898 80.2785 640.606 80.2785C619.314 80.2785 600.647 85.3827 584.606 95.5911C568.856 105.508 556.46 119.508 547.418 137.591C538.668 155.675 534.293 176.82 534.293 201.029C534.293 225.529 538.814 247.112 547.856 265.779C556.897 284.446 569.293 299.029 585.043 309.529C601.085 320.029 619.606 325.279 640.606 325.279Z" fill="#0A0D12"/>
<path d="M825.957 360.279V137.153H869.269V189.653H871.457V360.279H825.957ZM976.457 360.279V214.591C976.457 199.424 972.957 188.34 965.957 181.34C958.957 174.34 948.894 170.84 935.769 170.84C923.519 170.84 912.436 173.757 902.519 179.59C892.894 185.132 885.311 193.007 879.769 203.216C874.227 213.132 871.457 224.945 871.457 238.653L865.769 186.59C873.061 169.965 883.998 156.84 898.582 147.215C913.457 137.59 930.082 132.778 948.457 132.778C970.624 132.778 988.269 139.195 1001.39 152.028C1014.81 164.861 1021.52 181.778 1021.52 202.778V360.279H976.457ZM1126.96 360.279V214.591C1126.96 199.424 1123.31 188.34 1116.02 181.34C1109.02 174.34 1098.96 170.84 1085.83 170.84C1073.87 170.84 1062.94 173.757 1053.02 179.59C1043.39 185.132 1035.67 193.007 1029.83 203.216C1024.29 213.132 1021.52 224.945 1021.52 238.653L1012.33 186.59C1019.92 169.965 1031.29 156.84 1046.46 147.215C1061.92 137.59 1079.12 132.778 1098.08 132.778C1120.54 132.778 1138.48 139.34 1151.89 152.465C1165.31 165.299 1172.02 182.507 1172.02 204.091V360.279H1126.96Z" fill="#0A0D12"/>
<path d="M1206.09 360.279V137.153H1249.4V189.653H1251.59V360.279H1206.09ZM1364.46 360.279V216.778C1364.46 201.32 1360.52 189.799 1352.65 182.215C1345.07 174.632 1333.69 170.84 1318.52 170.84C1305.4 170.84 1293.73 173.757 1283.52 179.59C1273.61 185.424 1265.73 193.445 1259.9 203.653C1254.36 213.861 1251.59 225.966 1251.59 239.966L1245.9 186.59C1253.19 169.965 1264.42 156.84 1279.59 147.215C1294.75 137.59 1312.4 132.778 1332.52 132.778C1356.44 132.778 1375.25 139.486 1388.96 152.903C1402.67 166.32 1409.52 184.111 1409.52 206.278V360.279H1364.46Z" fill="#0A0D12"/>
<path d="M1442.23 360.279V137.153H1487.73V360.279H1442.23ZM1440.04 93.4032V42.2155H1490.35V93.4032H1440.04Z" fill="#0A0D12"/>
</svg>
