<svg xmlns="http://www.w3.org/2000/svg" width="500" height="500" viewBox="0 0 500 500" version="1.1"><path d="M 225.781 172.399 C 217.165 175.943, 210.794 180.415, 203.808 187.823 C 190.513 201.920, 184.246 221.317, 187.034 239.737 C 189.291 254.645, 195.585 266.963, 206.147 277.140 L 212 282.781 212 305.190 C 212 321.287, 212.338 327.938, 213.200 328.800 C 214.920 330.520, 285.080 330.520, 286.800 328.800 C 287.662 327.938, 288 321.287, 288 305.190 L 288 282.781 293.853 277.140 C 314.528 257.218, 319.463 226.903, 306.166 201.500 C 299.344 188.467, 284.797 175.750, 271.755 171.419 C 263.957 168.829, 264 168.705, 264 193.883 L 264 215.521 257 220.859 L 250 226.197 243 220.859 L 236 215.521 236 193.960 C 236 167.639, 236.221 168.106, 225.781 172.399" stroke="none" fill="#fbfbfc" fill-rule="evenodd"/><path d="M 212 83.031 C 212 94.203, 211.679 98.153, 210.750 98.413 C 199.929 101.441, 187.110 106.163, 179.309 109.994 L 169.563 114.781 164.531 110.438 C 161.764 108.050, 156.170 102.656, 152.099 98.451 L 144.698 90.807 117.599 117.921 L 90.500 145.036 102.119 156.552 L 113.738 168.068 107.581 180.284 C 104.195 187.003, 100.092 196.883, 98.463 202.239 L 95.500 211.978 81.750 211.989 L 68 212 68 250 L 68 288 81.750 288.011 L 95.500 288.022 98.463 297.761 C 100.092 303.117, 104.195 312.997, 107.581 319.716 L 113.738 331.932 102.119 343.448 L 90.500 354.964 117.605 382.085 L 144.710 409.206 157.105 397.262 L 169.500 385.319 179.500 390.164 C 185 392.828, 194.563 396.647, 200.750 398.651 L 212 402.293 212 417.146 L 212 432 250 432 L 288 432 288 417.146 L 288 402.293 299.250 398.651 C 305.438 396.647, 315 392.828, 320.500 390.164 L 330.500 385.319 342.895 397.262 L 355.290 409.206 382.395 382.101 L 409.500 354.996 397.671 343.748 L 385.842 332.500 392.186 320 C 395.676 313.125, 399.874 303.117, 401.516 297.761 L 404.500 288.022 418.250 288.011 L 432 288 432 250 L 432 212 418.250 211.989 L 404.500 211.978 401.516 202.239 C 399.874 196.883, 395.676 186.875, 392.186 180 L 385.841 167.500 397.647 156.233 L 409.452 144.966 382.488 117.988 L 355.525 91.011 346.012 100.279 C 340.781 105.377, 335.150 110.740, 333.500 112.196 L 330.500 114.844 320.722 110.026 C 312.895 106.169, 300.120 101.455, 289.250 98.413 C 288.321 98.153, 288 94.203, 288 83.031 L 288 68 250 68 L 212 68 212 83.031 M 225.781 172.399 C 217.165 175.943, 210.794 180.415, 203.808 187.823 C 190.513 201.920, 184.246 221.317, 187.034 239.737 C 189.291 254.645, 195.585 266.963, 206.147 277.140 L 212 282.781 212 305.190 C 212 321.287, 212.338 327.938, 213.200 328.800 C 214.920 330.520, 285.080 330.520, 286.800 328.800 C 287.662 327.938, 288 321.287, 288 305.190 L 288 282.781 293.853 277.140 C 314.528 257.218, 319.463 226.903, 306.166 201.500 C 299.344 188.467, 284.797 175.750, 271.755 171.419 C 263.957 168.829, 264 168.705, 264 193.883 L 264 215.521 257 220.859 L 250 226.197 243 220.859 L 236 215.521 236 193.960 C 236 167.639, 236.221 168.106, 225.781 172.399" stroke="none" fill="#1d73fc" fill-rule="evenodd"/></svg>
