<svg xmlns="http://www.w3.org/2000/svg" width="500" height="500" viewBox="0 0 500 500" version="1.1"><path d="M 206.223 180.557 C 204.002 182.112, 204 182.150, 204 214.985 C 204 243.535, 204.207 248.064, 205.571 249.429 C 206.968 250.826, 214.515 251, 273.571 251 C 338.667 251, 340.040 250.960, 342 249 C 343.915 247.085, 344 245.667, 344 215.455 L 344 183.909 341.545 181.455 L 339.091 179 273.768 179 C 216.264 179, 208.179 179.186, 206.223 180.557 M 225 292.729 C 221.387 294.104, 220.937 299.142, 224.223 301.443 C 226.158 302.799, 232.464 302.998, 272.973 302.985 C 308.345 302.974, 320.099 302.669, 322 301.712 C 325.422 299.989, 325.862 295.717, 322.835 293.597 C 320.821 292.187, 315.061 292.009, 273.527 292.079 C 247.662 292.122, 225.825 292.415, 225 292.729 M 246.588 340.555 C 244.566 342.577, 244.559 345.416, 246.571 347.429 C 247.917 348.774, 251.774 349, 273.416 349 C 297.698 349, 298.763 348.919, 300.562 346.932 C 302.272 345.042, 302.304 344.632, 300.929 342.182 L 299.424 339.500 273.800 339.233 C 251.489 339.001, 247.971 339.172, 246.588 340.555" stroke="none" fill="#fafafc" fill-rule="evenodd"/><path d="M 126.092 57.586 C 117.976 59.768, 112.092 64.490, 108.250 71.903 L 105 78.175 105 249.127 C 105 414.905, 105.057 420.192, 106.894 423.790 C 109.316 428.536, 111.404 430.385, 117.537 433.212 L 122.500 435.500 172.500 435.303 C 317.665 434.731, 392.095 433.762, 393.432 432.425 C 395.527 430.330, 396.169 369.070, 395.814 205.162 L 395.500 59.823 393.139 57.912 C 390.841 56.051, 387.342 56.002, 261.139 56.066 C 151.016 56.122, 130.686 56.351, 126.092 57.586 M 206.223 180.557 C 204.002 182.112, 204 182.150, 204 214.985 C 204 243.535, 204.207 248.064, 205.571 249.429 C 206.968 250.826, 214.515 251, 273.571 251 C 338.667 251, 340.040 250.960, 342 249 C 343.915 247.085, 344 245.667, 344 215.455 L 344 183.909 341.545 181.455 L 339.091 179 273.768 179 C 216.264 179, 208.179 179.186, 206.223 180.557 M 225 292.729 C 221.387 294.104, 220.937 299.142, 224.223 301.443 C 226.158 302.799, 232.464 302.998, 272.973 302.985 C 308.345 302.974, 320.099 302.669, 322 301.712 C 325.422 299.989, 325.862 295.717, 322.835 293.597 C 320.821 292.187, 315.061 292.009, 273.527 292.079 C 247.662 292.122, 225.825 292.415, 225 292.729 M 246.588 340.555 C 244.566 342.577, 244.559 345.416, 246.571 347.429 C 247.917 348.774, 251.774 349, 273.416 349 C 297.698 349, 298.763 348.919, 300.562 346.932 C 302.272 345.042, 302.304 344.632, 300.929 342.182 L 299.424 339.500 273.800 339.233 C 251.489 339.001, 247.971 339.172, 246.588 340.555 M 127.007 397.593 C 119.844 400.699, 116 406.209, 116 413.369 C 116 419.322, 116.667 420.759, 120.371 422.787 C 123.252 424.364, 129.005 424.482, 193 424.272 C 231.225 424.147, 290.063 423.755, 323.750 423.402 L 385 422.760 385 409.380 L 385 396 257.750 396.039 C 146.353 396.073, 130.065 396.267, 127.007 397.593" stroke="none" fill="#1d73fc" fill-rule="evenodd"/></svg>
